<svg xmlns="http://www.w3.org/2000/svg" width="256" height="256" viewBox="0 0 100 100"><rect width="100" height="100" rx="20" fill="#7d6ee7"></rect><path d="M17.37 54.11L13.46 54.11L13.46 63.22Q13.11 63.35 12.53 63.46Q11.96 63.57 11.26 63.57L11.26 63.57Q9.89 63.57 9.30 63.07Q8.71 62.56 8.71 61.37L8.71 61.37L8.71 38.67Q8.71 37.92 9.12 37.50Q9.54 37.09 10.29 36.87L10.29 36.87Q11.65 36.38 13.55 36.21Q15.44 36.03 17.11 36.03L17.11 36.03Q22.83 36.03 25.58 38.45Q28.33 40.87 28.33 45.01L28.33 45.01Q28.33 49.14 25.58 51.63Q22.83 54.11 17.37 54.11L17.37 54.11ZM13.41 50.29L17.07 50.29Q20.10 50.29 21.84 48.97Q23.58 47.65 23.58 45.01L23.58 45.01Q23.58 42.37 21.93 41.13Q20.28 39.90 17.20 39.90L17.20 39.90Q16.19 39.90 15.20 39.99Q14.21 40.08 13.41 40.21L13.41 40.21L13.41 50.29ZM41.00 60.36L41.00 60.36Q42.54 60.36 43.69 60.05Q44.83 59.75 45.31 59.39L45.31 59.39L45.31 53.81L40.52 54.29Q38.49 54.51 37.48 55.19Q36.47 55.87 36.47 57.28L36.47 57.28Q36.47 58.73 37.57 59.55Q38.67 60.36 41.00 60.36ZM40.91 42.10L40.91 42.10Q45.01 42.10 47.43 43.88Q49.85 45.67 49.85 49.49L49.85 49.49L49.85 59.75Q49.85 60.76 49.38 61.31Q48.92 61.86 48.13 62.34L48.13 62.34Q46.99 63.00 45.18 63.49Q43.38 63.97 41.00 63.97L41.00 63.97Q36.73 63.97 34.34 62.30Q31.94 60.63 31.94 57.37L31.94 57.37Q31.94 54.47 33.81 52.93Q35.68 51.39 39.20 51.03L39.20 51.03L45.31 50.42L45.31 49.45Q45.31 47.51 44.06 46.63Q42.81 45.75 40.56 45.75L40.56 45.75Q38.80 45.75 37.17 46.24Q35.55 46.72 34.27 47.34L34.27 47.34Q33.83 46.99 33.52 46.48Q33.21 45.97 33.21 45.36L33.21 45.36Q33.21 44.61 33.59 44.13Q33.96 43.64 34.75 43.29L34.75 43.29Q35.99 42.67 37.57 42.39Q39.15 42.10 40.91 42.10ZM71.10 57.63L71.10 57.63Q71.10 60.58 68.90 62.25Q66.70 63.93 62.52 63.93L62.52 63.93Q60.80 63.93 59.35 63.66Q57.90 63.40 56.86 62.91Q55.83 62.43 55.26 61.77Q54.69 61.11 54.69 60.32L54.69 60.32Q54.69 59.66 55.02 59.09Q55.35 58.51 55.92 58.16L55.92 58.16Q57.15 58.95 58.73 59.61Q60.32 60.27 62.43 60.27L62.43 60.27Q64.41 60.27 65.47 59.59Q66.52 58.91 66.52 57.63L66.52 57.63Q66.52 56.53 65.80 55.87Q65.07 55.21 63.66 54.86L63.66 54.86L60.67 54.07Q57.68 53.28 56.27 51.91Q54.86 50.55 54.86 48.17L54.86 48.17Q54.86 46.90 55.39 45.78Q55.92 44.65 56.95 43.84Q57.99 43.03 59.53 42.56Q61.07 42.10 63.05 42.10L63.05 42.10Q64.63 42.10 65.93 42.34Q67.23 42.59 68.17 43.00Q69.12 43.42 69.65 44.04Q70.17 44.65 70.17 45.36L70.17 45.36Q70.17 46.06 69.87 46.57Q69.56 47.07 69.07 47.38L69.07 47.38Q68.28 46.90 66.72 46.33Q65.16 45.75 63.35 45.75L63.35 45.75Q61.51 45.75 60.45 46.39Q59.39 47.03 59.39 48.17L59.39 48.17Q59.39 49.05 59.99 49.63Q60.58 50.20 62.03 50.55L62.03 50.55L64.59 51.21Q67.93 52.09 69.51 53.59Q71.10 55.08 71.10 57.63ZM91.29 57.63L91.29 57.63Q91.29 60.58 89.09 62.25Q86.89 63.93 82.71 63.93L82.71 63.93Q81.00 63.93 79.55 63.66Q78.09 63.40 77.06 62.91Q76.03 62.43 75.45 61.77Q74.88 61.11 74.88 60.32L74.88 60.32Q74.88 59.66 75.21 59.09Q75.54 58.51 76.11 58.16L76.11 58.16Q77.35 58.95 78.93 59.61Q80.51 60.27 82.63 60.27L82.63 60.27Q84.61 60.27 85.66 59.59Q86.72 58.91 86.72 57.63L86.72 57.63Q86.72 56.53 85.99 55.87Q85.27 55.21 83.86 54.86L83.86 54.86L80.87 54.07Q77.87 53.28 76.47 51.91Q75.06 50.55 75.06 48.17L75.06 48.17Q75.06 46.90 75.59 45.78Q76.11 44.65 77.15 43.84Q78.18 43.03 79.72 42.56Q81.26 42.10 83.24 42.10L83.24 42.10Q84.83 42.10 86.12 42.34Q87.42 42.59 88.37 43.00Q89.31 43.42 89.84 44.04Q90.37 44.65 90.37 45.36L90.37 45.36Q90.37 46.06 90.06 46.57Q89.75 47.07 89.27 47.38L89.27 47.38Q88.48 46.90 86.92 46.33Q85.35 45.75 83.55 45.75L83.55 45.75Q81.70 45.75 80.65 46.39Q79.59 47.03 79.59 48.17L79.59 48.17Q79.59 49.05 80.18 49.63Q80.78 50.20 82.23 50.55L82.23 50.55L84.78 51.21Q88.13 52.09 89.71 53.59Q91.29 55.08 91.29 57.63Z" fill="#fff"></path></svg>